<svg width="191" height="53" viewBox="0 0 191 53" fill="none" xmlns="http://www.w3.org/2000/svg">
<path d="M67.248 39.192C73.92 39.192 79.296 33.816 79.296 27.144C79.296 20.52 73.92 15.096 67.248 15.096C60.624 15.096 55.2 20.52 55.2 27.144V27.192V48.696C55.2 49.992 56.256 51.048 57.6 51.048C58.896 51.048 59.952 49.992 59.952 48.696V36.744C61.968 38.28 64.512 39.192 67.248 39.192ZM67.248 19.848C71.28 19.848 74.544 23.16 74.544 27.144C74.544 31.176 71.28 34.44 67.248 34.44C63.216 34.44 59.952 31.176 59.952 27.192V27.144C59.952 23.112 63.216 19.848 67.248 19.848ZM94.1329 14.904C87.4609 14.904 82.0849 20.28 82.0849 26.952C82.0849 33.576 87.4609 39 94.1329 39C95.9089 39 98.3569 39.048 101.525 36.936C102.629 36.216 103.253 34.968 102.677 33.768C102.101 32.616 100.613 31.944 99.5089 32.664C97.2049 34.152 95.2369 34.248 94.1329 34.248C90.9169 34.248 88.2289 32.184 87.2209 29.304H103.781C105.125 29.304 106.181 28.248 106.181 26.952C106.181 19.128 99.9409 14.904 94.1329 14.904ZM94.1329 19.656C97.0129 19.656 100.085 21.192 101.093 24.552H87.2209C88.2289 21.72 90.9169 19.656 94.1329 19.656ZM142.905 24.6C142.905 19.32 138.585 15 133.257 15C130.377 15 127.785 16.248 126.009 18.312C124.233 16.248 121.641 15 118.761 15C113.433 15 109.113 19.32 109.113 24.6V36.696C109.113 38.04 110.169 39.096 111.513 39.096C112.809 39.096 113.865 38.04 113.865 36.696V24.6C113.865 21.912 116.073 19.752 118.761 19.752C121.449 19.752 123.609 21.912 123.609 24.6V36.696C123.609 38.04 124.713 39.096 126.009 39.096C127.305 39.096 128.361 38.04 128.361 36.696V24.6C128.361 21.912 130.569 19.752 133.257 19.752C135.945 19.752 138.153 21.912 138.153 24.6C138.153 24.696 138.153 24.744 138.153 24.792C138.153 24.888 138.153 24.936 138.153 25.032V36.696C138.153 38.04 139.209 39.096 140.505 39.096C141.801 39.096 142.905 38.04 142.905 36.696V25.032C142.905 24.936 142.905 24.888 142.857 24.792C142.905 24.744 142.905 24.696 142.905 24.6ZM148.216 39.048C149.512 39.048 150.568 37.992 150.568 36.648V17.304C150.568 16.008 149.512 14.952 148.216 14.952C146.872 14.952 145.816 16.008 145.816 17.304V36.648C145.816 37.992 146.872 39.048 148.216 39.048ZM148.216 10.152C148.84 10.152 149.464 9.912 149.896 9.48C150.328 9.048 150.568 8.424 150.568 7.8C150.568 7.176 150.328 6.552 149.896 6.12C149.464 5.688 148.84 5.4 148.216 5.4C147.592 5.4 146.968 5.688 146.536 6.12C146.104 6.552 145.816 7.176 145.816 7.8C145.816 8.424 146.104 9.048 146.536 9.48C146.968 9.912 147.592 10.152 148.216 10.152ZM155.951 39.048C157.247 39.048 158.303 37.992 158.303 36.648V5.4C158.303 4.104 157.247 3.048 155.951 3.048C154.607 3.048 153.551 4.104 153.551 5.4V36.648C153.551 37.992 154.607 39.048 155.951 39.048ZM173.093 39C179.765 39 185.141 33.576 185.141 26.952C185.141 20.28 179.765 14.904 173.093 14.904C166.469 14.904 161.045 20.28 161.045 26.952C161.045 33.576 166.469 39 173.093 39ZM173.093 19.656C177.125 19.656 180.389 22.92 180.389 26.952C180.389 30.936 177.125 34.248 173.093 34.248C169.061 34.248 165.797 30.936 165.797 26.952C165.797 22.92 169.061 19.656 173.093 19.656Z" fill="#6EADE8"/>
<circle cx="25" cy="27" r="25" fill="#6EADE8"/>
<path d="M32.1367 15.3032V13.3042C32.1367 10.8112 33.9611 9.85126 35.2832 9.85126C38.4297 9.85126 38.4297 13.3042 38.4297 13.3042V15.3032C37.2498 17.3023 35.6766 17.3023 35.6766 17.3023C35.6766 17.3023 35.195 17.3355 34.8899 17.3023C33.532 17.1542 32.1367 15.3032 32.1367 15.3032Z" fill="#88C4FB"/>
<path d="M24.2704 44.562H25.8437C25.8437 44.562 37.6431 44.562 38.4297 33.6581V15.3032C37.2498 17.3023 35.6765 17.3023 35.6765 17.3023C35.6765 17.3023 35.195 17.3355 34.8899 17.3023C33.5319 17.1542 32.1367 15.3032 32.1367 15.3032V26.3888C32.1367 26.3888 32.1367 28.7513 30.9567 29.66C30.9567 29.66 29.7768 30.5687 29.1868 30.5687H27.4169C27.4169 30.5687 25.8437 30.3869 25.057 28.9331C25.057 28.9331 24.8604 28.5696 24.6637 28.9331C24.6637 28.9331 24.0737 30.2052 22.1072 30.7504C22.1072 30.7504 21.5172 33.8398 18.764 34.0216H16.7974C16.7974 34.0216 16.4041 34.0216 16.4041 34.385V35.8389C16.4041 35.8389 16.4041 36.7475 13.8476 38.0197L13.4543 38.2014C13.4543 38.2014 13.061 38.3831 13.1593 38.5649L13.2576 38.7466C15.2242 42.3812 18.3707 44.1985 24.2704 44.562Z" fill="white"/>
<path d="M12.3569 36.7475C12.3569 36.7475 12.5535 37.4745 13.5368 37.111C13.5368 37.111 15.3067 36.7475 15.5034 35.1119V34.0216C15.5034 34.0216 15.5034 32.9312 16.6833 32.9312H18.6499H19.0432C19.0432 32.9312 20.4198 32.9312 21.0098 31.1139L21.2064 30.5687C21.2064 30.5687 21.4031 30.0235 21.2064 29.66C21.2064 29.66 20.6165 28.0244 17.8633 28.0244H12.3569C12.3569 28.0244 11.5703 28.0244 11.5703 28.5696V32.2042C11.5703 32.2042 11.5703 34.0216 12.3569 36.7475Z" fill="white"/>
<path d="M11.5703 27.1157V23.1176C11.7669 21.6638 12.7502 20.7551 14.3235 20.7551H14.9134C16.4867 20.7551 17.6666 22.0272 17.6666 23.1176V27.1157C17.6666 27.2975 17.6666 27.2975 16.6833 27.2975H12.7502C11.5703 27.2975 11.5703 27.2975 11.5703 27.1157Z" fill="white"/>
<path d="M18.8466 26.2053V26.7505C18.8466 27.2957 19.0432 27.4774 19.6332 27.6592C20.6165 27.9621 21.2064 28.3861 21.7964 29.2948L21.9931 29.6582C22.1897 30.0217 22.3864 30.0217 22.7797 29.84C23.6871 29.4207 24.353 28.5678 24.353 28.0226V20.9653C24.353 20.3899 23.9596 19.2995 22.3864 18.7543C21.9931 18.657 21.5401 18.6727 21.0098 18.7543C19.8298 18.9361 18.8466 20.0264 18.8466 20.9653V26.2053Z" fill="white"/>
<path d="M25.3363 27.1158V23.1177C25.5329 21.6638 26.7129 20.21 28.2861 20.21H28.4828C30.056 20.21 31.4326 22.0273 31.4326 23.1177V27.1158C31.4326 27.8427 30.7957 29.1898 29.2694 29.66C28.4828 29.9023 28.0895 29.9023 27.3028 29.66C26.3292 29.3601 25.3363 28.3879 25.3363 27.1158Z" fill="white"/>
</svg>
