<svg width="150" height="42" viewBox="0 0 150 42" fill="none" xmlns="http://www.w3.org/2000/svg">
<path d="M22.2054 6.59686V4.17801C22.2054 1.16147 24.1752 0 25.6027 0C29 0 29 4.17801 29 4.17801V6.59686C27.726 9.01571 26.0274 9.01571 26.0274 9.01571C26.0274 9.01571 25.5075 9.05595 25.1781 9.01571C23.7119 8.8366 22.2054 6.59686 22.2054 6.59686Z" fill="#6EADE8"/>
<path d="M13.7122 42H15.4109C15.4109 42 28.1506 42 28.9999 28.8063V6.59686C27.726 9.01571 26.0274 9.01571 26.0274 9.01571C26.0274 9.01571 25.5074 9.05595 25.178 9.01571C23.7119 8.8366 22.2054 6.59686 22.2054 6.59686V20.0105C22.2054 20.0105 22.2054 22.8691 20.9314 23.9686C20.9314 23.9686 19.6575 25.0681 19.0205 25.0681H17.1095C17.1095 25.0681 15.4109 24.8482 14.5616 23.089C14.5616 23.089 14.3492 22.6492 14.1369 23.089C14.1369 23.089 13.4999 24.6283 11.3766 25.288C11.3766 25.288 10.7396 29.0262 7.76702 29.2461H5.64373C5.64373 29.2461 5.21907 29.2461 5.21907 29.6859V31.445C5.21907 31.445 5.21907 32.5445 2.45879 34.0838L2.03414 34.3037C2.03414 34.3037 1.6095 34.5236 1.71564 34.7435L1.82181 34.9634C3.9451 39.3613 7.34237 41.5602 13.7122 42Z" fill="#ECBCB4" fill-opacity="0.9"/>
<path d="M0.849317 32.5445C0.849317 32.5445 1.06165 33.4241 2.12329 32.9843C2.12329 32.9843 4.03425 32.5445 4.24658 30.5655V29.2461C4.24658 29.2461 4.24658 27.9267 5.52056 27.9267H7.64385H8.06851C8.06851 27.9267 9.55481 27.9267 10.1918 25.7278L10.4041 25.0681C10.4041 25.0681 10.6165 24.4084 10.4041 23.9686C10.4041 23.9686 9.76714 21.9896 6.79453 21.9896H0.849317C0.849317 21.9896 0 21.9896 0 22.6492V27.0472C0 27.0472 1.48832e-05 29.2461 0.849317 32.5445Z" fill="#ECBCB4" fill-opacity="0.9"/>
<path d="M0 20.8901V16.0524C0.212329 14.2932 1.27397 13.1937 2.97261 13.1937H3.6096C5.30823 13.1937 6.5822 14.733 6.5822 16.0524V20.8901C6.5822 21.11 6.5822 21.11 5.52056 21.11H1.27397C0 21.11 0 21.11 0 20.8901Z" fill="#ECBCB4" fill-opacity="0.9"/>
<path d="M7.85617 19.7884V20.4481C7.85617 21.1077 8.0685 21.3276 8.70549 21.5475C9.76713 21.914 10.4041 22.4271 11.0411 23.5266L11.2534 23.9664C11.4658 24.4062 11.6781 24.4062 12.1028 24.1863C13.0825 23.6789 13.8014 22.647 13.8014 21.9873V13.448C13.8014 12.7517 13.3767 11.4323 11.6781 10.7727C11.2534 10.6549 10.7643 10.6738 10.1918 10.7727C8.91782 10.9926 7.85617 12.3119 7.85617 13.448V19.7884Z" fill="#ECBCB4" fill-opacity="0.9"/>
<path d="M14.863 20.89V16.0523C15.0754 14.2932 16.3493 12.534 18.048 12.534H18.2603C19.9589 12.534 21.4452 14.7329 21.4452 16.0523V20.89C21.4452 21.7696 20.7576 23.3997 19.1096 23.9686C18.2603 24.2617 17.8356 24.2617 16.9863 23.9686C15.9351 23.6056 14.863 22.4293 14.863 20.89Z" fill="#ECBCB4" fill-opacity="0.9"/>
<path d="M43.5586 23.9824V33H38.2852V7.40625H48.2695C50.1914 7.40625 51.8789 7.75781 53.332 8.46094C54.7969 9.16406 55.9219 10.166 56.707 11.4668C57.4922 12.7559 57.8848 14.2266 57.8848 15.8789C57.8848 18.3867 57.0234 20.3672 55.3008 21.8203C53.5898 23.2617 51.2168 23.9824 48.1816 23.9824H43.5586ZM43.5586 19.7109H48.2695C49.6641 19.7109 50.7246 19.3828 51.4512 18.7266C52.1895 18.0703 52.5586 17.1328 52.5586 15.9141C52.5586 14.6602 52.1895 13.6465 51.4512 12.873C50.7129 12.0996 49.6934 11.7012 48.3926 11.6777H43.5586V19.7109ZM69.6973 33.3516C66.9082 33.3516 64.6348 32.4961 62.877 30.7852C61.1309 29.0742 60.2578 26.7949 60.2578 23.9473V23.4551C60.2578 21.5449 60.627 19.8398 61.3652 18.3398C62.1035 16.8281 63.1465 15.668 64.4941 14.8594C65.8535 14.0391 67.4004 13.6289 69.1348 13.6289C71.7363 13.6289 73.7812 14.4492 75.2695 16.0898C76.7695 17.7305 77.5195 20.0566 77.5195 23.0684V25.1426H65.4082C65.5723 26.3848 66.0645 27.3809 66.8848 28.1309C67.7168 28.8809 68.7656 29.2559 70.0312 29.2559C71.9883 29.2559 73.5176 28.5469 74.6191 27.1289L77.1152 29.9238C76.3535 31.002 75.3223 31.8457 74.0215 32.4551C72.7207 33.0527 71.2793 33.3516 69.6973 33.3516ZM69.1172 17.7422C68.1094 17.7422 67.2891 18.082 66.6562 18.7617C66.0352 19.4414 65.6367 20.4141 65.4609 21.6797H72.5273V21.2754C72.5039 20.1504 72.1992 19.2832 71.6133 18.6738C71.0273 18.0527 70.1953 17.7422 69.1172 17.7422ZM85.1836 13.9805L85.3418 16.1074C86.6895 14.4551 88.5117 13.6289 90.8086 13.6289C93.2578 13.6289 94.9395 14.5957 95.8535 16.5293C97.1895 14.5957 99.0938 13.6289 101.566 13.6289C103.629 13.6289 105.164 14.2324 106.172 15.4395C107.18 16.6348 107.684 18.4395 107.684 20.8535V33H102.586V20.8711C102.586 19.793 102.375 19.0078 101.953 18.5156C101.531 18.0117 100.787 17.7598 99.7207 17.7598C98.1973 17.7598 97.1426 18.4863 96.5566 19.9395L96.5742 33H91.4941V20.8887C91.4941 19.7871 91.2773 18.9902 90.8438 18.498C90.4102 18.0059 89.6719 17.7598 88.6289 17.7598C87.1875 17.7598 86.1445 18.3574 85.5 19.5527V33H80.4199V13.9805H85.1836ZM116.965 33H111.867V13.9805H116.965V33ZM111.568 9.05859C111.568 8.29688 111.82 7.66992 112.324 7.17773C112.84 6.68555 113.537 6.43945 114.416 6.43945C115.283 6.43945 115.975 6.68555 116.49 7.17773C117.006 7.66992 117.264 8.29688 117.264 9.05859C117.264 9.83203 117 10.4648 116.473 10.957C115.957 11.4492 115.271 11.6953 114.416 11.6953C113.561 11.6953 112.869 11.4492 112.342 10.957C111.826 10.4648 111.568 9.83203 111.568 9.05859ZM126.527 33H121.43V6H126.527V33ZM129.938 23.3145C129.938 21.4277 130.301 19.7461 131.027 18.2695C131.754 16.793 132.797 15.6504 134.156 14.8418C135.527 14.0332 137.115 13.6289 138.92 13.6289C141.486 13.6289 143.578 14.4141 145.195 15.9844C146.824 17.5547 147.732 19.6875 147.92 22.3828L147.955 23.6836C147.955 26.6016 147.141 28.9453 145.512 30.7148C143.883 32.4727 141.697 33.3516 138.955 33.3516C136.213 33.3516 134.021 32.4727 132.381 30.7148C130.752 28.957 129.938 26.5664 129.938 23.543V23.3145ZM135.018 23.6836C135.018 25.4883 135.357 26.8711 136.037 27.832C136.717 28.7812 137.689 29.2559 138.955 29.2559C140.186 29.2559 141.146 28.7871 141.838 27.8496C142.529 26.9004 142.875 25.3887 142.875 23.3145C142.875 21.5449 142.529 20.1738 141.838 19.2012C141.146 18.2285 140.174 17.7422 138.92 17.7422C137.678 17.7422 136.717 18.2285 136.037 19.2012C135.357 20.1621 135.018 21.6562 135.018 23.6836Z" fill="#5096D7"/>
</svg>
