<svg width="388" height="124" viewBox="0 0 388 124" fill="none" xmlns="http://www.w3.org/2000/svg">
<path d="M149.496 82.384C162.84 82.384 173.592 71.632 173.592 58.288C173.592 45.04 162.84 34.192 149.496 34.192C136.248 34.192 125.4 45.04 125.4 58.288V58.384V101.392C125.4 103.984 127.512 106.096 130.2 106.096C132.792 106.096 134.904 103.984 134.904 101.392V77.488C138.936 80.56 144.024 82.384 149.496 82.384ZM149.496 43.696C157.56 43.696 164.088 50.32 164.088 58.288C164.088 66.352 157.56 72.88 149.496 72.88C141.432 72.88 134.904 66.352 134.904 58.384V58.288C134.904 50.224 141.432 43.696 149.496 43.696ZM203.266 33.808C189.922 33.808 179.17 44.56 179.17 57.904C179.17 71.152 189.922 82 203.266 82C206.818 82 211.714 82.096 218.05 77.872C220.258 76.432 221.506 73.936 220.354 71.536C219.202 69.232 216.226 67.888 214.018 69.328C209.41 72.304 205.474 72.496 203.266 72.496C196.834 72.496 191.458 68.368 189.442 62.608H222.562C225.25 62.608 227.362 60.496 227.362 57.904C227.362 42.256 214.882 33.808 203.266 33.808ZM203.266 43.312C209.026 43.312 215.17 46.384 217.186 53.104H189.442C191.458 47.44 196.834 43.312 203.266 43.312ZM300.81 53.2C300.81 42.64 292.17 34 281.514 34C275.754 34 270.57 36.496 267.018 40.624C263.466 36.496 258.282 34 252.522 34C241.866 34 233.226 42.64 233.226 53.2V77.392C233.226 80.08 235.338 82.192 238.026 82.192C240.618 82.192 242.73 80.08 242.73 77.392V53.2C242.73 47.824 247.146 43.504 252.522 43.504C257.898 43.504 262.218 47.824 262.218 53.2V77.392C262.218 80.08 264.426 82.192 267.018 82.192C269.61 82.192 271.722 80.08 271.722 77.392V53.2C271.722 47.824 276.138 43.504 281.514 43.504C286.89 43.504 291.306 47.824 291.306 53.2C291.306 53.392 291.306 53.488 291.306 53.584C291.306 53.776 291.306 53.872 291.306 54.064V77.392C291.306 80.08 293.418 82.192 296.01 82.192C298.602 82.192 300.81 80.08 300.81 77.392V54.064C300.81 53.872 300.81 53.776 300.714 53.584C300.81 53.488 300.81 53.392 300.81 53.2ZM311.432 82.096C314.024 82.096 316.136 79.984 316.136 77.296V38.608C316.136 36.016 314.024 33.904 311.432 33.904C308.744 33.904 306.632 36.016 306.632 38.608V77.296C306.632 79.984 308.744 82.096 311.432 82.096ZM311.432 24.304C312.68 24.304 313.928 23.824 314.792 22.96C315.656 22.096 316.136 20.848 316.136 19.6C316.136 18.352 315.656 17.104 314.792 16.24C313.928 15.376 312.68 14.8 311.432 14.8C310.184 14.8 308.936 15.376 308.072 16.24C307.208 17.104 306.632 18.352 306.632 19.6C306.632 20.848 307.208 22.096 308.072 22.96C308.936 23.824 310.184 24.304 311.432 24.304ZM326.901 82.096C329.493 82.096 331.605 79.984 331.605 77.296V14.8C331.605 12.208 329.493 10.096 326.901 10.096C324.213 10.096 322.101 12.208 322.101 14.8V77.296C322.101 79.984 324.213 82.096 326.901 82.096ZM361.186 82C374.53 82 385.282 71.152 385.282 57.904C385.282 44.56 374.53 33.808 361.186 33.808C347.938 33.808 337.09 44.56 337.09 57.904C337.09 71.152 347.938 82 361.186 82ZM361.186 43.312C369.25 43.312 375.778 49.84 375.778 57.904C375.778 65.872 369.25 72.496 361.186 72.496C353.122 72.496 346.594 65.872 346.594 57.904C346.594 49.84 353.122 43.312 361.186 43.312Z" fill="#6EADE8"/>
<ellipse cx="58.5079" cy="62.4906" rx="58.5079" ry="58.4906" fill="#6EADE8"/>
<path d="M75.21 35.1245V30.4475C75.2098 24.6147 79.4796 22.369 82.5739 22.369C89.9376 22.369 89.9376 30.4475 89.9376 30.4475V35.1245C87.1762 39.8015 83.4943 39.8015 83.4943 39.8015C83.4943 39.8015 82.3674 39.8793 81.6534 39.8015C78.4753 39.4552 75.21 35.1245 75.21 35.1245Z" fill="#83CBFF"/>
<path d="M56.8004 103.579H60.4823C60.4823 103.579 88.0966 103.579 89.9376 78.068V35.1245C87.1762 39.8015 83.4943 39.8015 83.4943 39.8015C83.4943 39.8015 82.3673 39.8793 81.6533 39.8015C78.4753 39.4552 75.2099 35.1245 75.2099 35.1245V61.0607C75.2099 61.0607 75.2099 66.588 72.4485 68.714C72.4485 68.714 69.6871 70.8399 68.3064 70.8399H64.1642C64.1642 70.8399 60.4823 70.4147 58.6413 67.0132C58.6413 67.0132 58.1811 66.1629 57.7208 67.0132C57.7208 67.0132 56.3401 69.9895 51.7377 71.2651C51.7377 71.2651 50.357 78.4932 43.9137 78.9184H39.3113C39.3113 78.9184 38.3908 78.9184 38.3908 79.7687V83.1702C38.3908 83.1702 38.3908 85.2961 32.4077 88.2724L31.4872 88.6976C31.4872 88.6976 30.5668 89.1228 30.7968 89.548L31.027 89.9731C35.6294 98.4768 42.9932 102.729 56.8004 103.579Z" fill="white"/>
<path d="M28.919 85.2961C28.919 85.2961 29.3792 86.9968 31.6804 86.1465C31.6804 86.1465 35.8226 85.2961 36.2828 81.4695V78.9184C36.2828 78.9184 36.2828 76.3673 39.0442 76.3673H43.6466H44.5671C44.5671 76.3673 47.7888 76.3673 49.1695 72.1154L49.6297 70.8399C49.6297 70.8399 50.09 69.5643 49.6297 68.714C49.6297 68.714 48.249 64.8873 41.8057 64.8873H28.919C28.919 64.8873 27.078 64.8873 27.078 66.1628V74.6665C27.078 74.6665 27.078 78.9184 28.919 85.2961Z" fill="white"/>
<path d="M27.078 62.7614V53.4074C27.5382 50.0059 29.8394 47.88 33.5214 47.88H34.9021C38.584 47.88 41.3454 50.8563 41.3454 53.4074V62.7614C41.3454 63.1866 41.3454 63.1866 39.0442 63.1866H29.8394C27.078 63.1866 27.078 63.1866 27.078 62.7614Z" fill="white"/>
<path d="M44.1069 60.6313V61.9068C44.1069 63.1824 44.5671 63.6075 45.9478 64.0327C48.249 64.7414 49.6297 65.7335 51.0105 67.8594L51.4707 68.7097C51.9309 69.5601 52.3912 69.5601 53.3117 69.1349C55.4354 68.154 56.9936 66.1586 56.9936 64.8831V48.3717C56.9936 47.0254 56.0731 44.4743 52.3912 43.1987C51.4707 42.971 50.4105 43.0077 49.1695 43.1987C46.4081 43.6239 44.1069 46.175 44.1069 48.3717V60.6313Z" fill="white"/>
<path d="M59.2948 62.7614V53.4073C59.755 50.0059 62.5164 46.6044 66.1984 46.6044H66.6586C70.3405 46.6044 73.5622 50.8562 73.5622 53.4073V62.7614C73.5622 64.4621 72.0716 67.614 68.4996 68.7139C66.6586 69.2808 65.7381 69.2808 63.8972 68.7139C61.6185 68.0122 59.2948 65.7377 59.2948 62.7614Z" fill="white"/>
</svg>
