<svg width="250" height="250" viewBox="0 0 250 250" fill="none" xmlns="http://www.w3.org/2000/svg">
<circle cx="125" cy="125" r="125" fill="#6EADE8"/>
<path d="M162.433 63.2723V52.9058C162.433 39.9777 171.874 35 178.717 35C195 35 195 52.9058 195 52.9058V63.2723C188.894 73.6388 180.752 73.6388 180.752 73.6388C180.752 73.6388 178.26 73.8112 176.681 73.6388C169.654 72.8711 162.433 63.2723 162.433 63.2723Z" fill="#83CBFF"/>
<path d="M121.724 215H129.866C129.866 215 190.929 215 195 158.456V63.2723C188.894 73.6388 180.752 73.6388 180.752 73.6388C180.752 73.6388 178.26 73.8112 176.681 73.6388C169.653 72.8711 162.433 63.2723 162.433 63.2723V120.759C162.433 120.759 162.433 133.01 156.327 137.723C156.327 137.723 150.22 142.435 147.167 142.435H138.008C138.008 142.435 129.866 141.492 125.795 133.953C125.795 133.953 124.777 132.068 123.76 133.953C123.76 133.953 120.707 140.55 110.529 143.377C110.529 143.377 107.476 159.398 93.2283 160.34H83.0511C83.0511 160.34 81.0157 160.34 81.0157 162.225V169.764C81.0157 169.764 81.0157 174.476 67.7854 181.073L65.7499 182.016C65.7499 182.016 63.7146 182.958 64.2234 183.901L64.7322 184.843C74.9094 203.691 91.1928 213.115 121.724 215Z" fill="white"/>
<path d="M60.0709 174.476C60.0709 174.476 61.0886 178.246 66.1772 176.361C66.1772 176.361 75.3366 174.476 76.3543 165.995V160.34C76.3543 160.34 76.3543 154.686 82.4606 154.686H92.6378H94.6732C94.6732 154.686 101.797 154.686 104.85 145.262L105.868 142.435C105.868 142.435 106.886 139.607 105.868 137.723C105.868 137.723 102.815 129.241 88.5669 129.241H60.0709C60.0709 129.241 56 129.241 56 132.068V150.916C56 150.916 56.0001 160.34 60.0709 174.476Z" fill="white"/>
<path d="M56 124.529V103.796C57.0177 96.2565 62.1063 91.5445 70.248 91.5445H73.3012C81.4429 91.5445 87.5492 98.1414 87.5492 103.796V124.529C87.5492 125.471 87.5492 125.471 82.4606 125.471H62.1063C56 125.471 56 125.471 56 124.529Z" fill="white"/>
<path d="M93.6555 119.807V122.635C93.6555 125.462 94.6732 126.404 97.7263 127.347C102.815 128.917 105.868 131.116 108.921 135.828L109.939 137.713C110.957 139.598 111.974 139.598 114.01 138.656C118.706 136.481 122.152 132.059 122.152 129.231V92.6343C122.152 89.6503 120.116 83.9959 111.974 81.1687C109.939 80.6639 107.595 80.7451 104.85 81.1687C98.7441 82.111 93.6555 87.7655 93.6555 92.6343V119.807Z" fill="white"/>
<path d="M127.24 124.529V103.796C128.258 96.2566 134.364 88.7173 142.506 88.7173H143.524C151.665 88.7173 158.789 98.1414 158.789 103.796V124.529C158.789 128.298 155.493 135.284 147.594 137.723C143.524 138.979 141.488 138.979 137.417 137.723C132.378 136.167 127.24 131.126 127.24 124.529Z" fill="white"/>
</svg>
