<svg width="60" height="55" viewBox="0 0 60 60" fill="none" xmlns="http://www.w3.org/2000/svg">
<path d="M50.703 51.875H48.75V7.34375C48.75 6.04933 47.7007 5 46.4062 5H13.5937C12.2993 5 11.25 6.04933 11.25 7.34375V51.875H9.29686C8.64968 51.875 8.12498 52.3998 8.12498 53.047V55H51.875V53.047C51.875 52.3998 51.3502 51.875 50.703 51.875ZM20.625 12.4219C20.625 11.7747 21.1497 11.25 21.7969 11.25H25.703C26.3502 11.25 26.875 11.7747 26.875 12.4219V16.3281C26.875 16.9753 26.3502 17.5 25.703 17.5H21.7969C21.1497 17.5 20.625 16.9753 20.625 16.3281V12.4219ZM20.625 21.7969C20.625 21.1497 21.1497 20.625 21.7969 20.625H25.703C26.3502 20.625 26.875 21.1497 26.875 21.7969V25.703C26.875 26.3503 26.3502 26.875 25.703 26.875H21.7969C21.1497 26.875 20.625 26.3503 20.625 25.703V21.7969ZM25.703 36.25H21.7969C21.1497 36.25 20.625 35.7253 20.625 35.078V31.172C20.625 30.5248 21.1497 30 21.7969 30H25.703C26.3502 30 26.875 30.5248 26.875 31.172V35.078C26.875 35.7253 26.3502 36.25 25.703 36.25ZM33.125 51.875H26.875V43.672C26.875 43.0248 27.3997 42.5 28.047 42.5H31.953C32.6002 42.5 33.125 43.0248 33.125 43.672V51.875ZM39.375 35.078C39.375 35.7253 38.8502 36.25 38.203 36.25H34.297C33.6497 36.25 33.125 35.7253 33.125 35.078V31.172C33.125 30.5248 33.6497 30 34.297 30H38.203C38.8502 30 39.375 30.5248 39.375 31.172V35.078ZM39.375 25.703C39.375 26.3503 38.8502 26.875 38.203 26.875H34.297C33.6497 26.875 33.125 26.3503 33.125 25.703V21.7969C33.125 21.1497 33.6497 20.625 34.297 20.625H38.203C38.8502 20.625 39.375 21.1497 39.375 21.7969V25.703ZM39.375 16.3281C39.375 16.9753 38.8502 17.5 38.203 17.5H34.297C33.6497 17.5 33.125 16.9753 33.125 16.3281V12.4219C33.125 11.7747 33.6497 11.25 34.297 11.25H38.203C38.8502 11.25 39.375 11.7747 39.375 12.4219V16.3281Z" fill="#5096D7"/>
</svg>
