<svg width="60" height="60" viewBox="0 0 60 60" fill="none" xmlns="http://www.w3.org/2000/svg">
<path d="M12.1667 27.6666C14.9245 27.6666 17.1667 25.4244 17.1667 22.6666C17.1667 19.9088 14.9245 17.6666 12.1667 17.6666C9.40886 17.6666 7.16666 19.9088 7.16666 22.6666C7.16666 25.4244 9.40886 27.6666 12.1667 27.6666ZM47.1667 27.6666C49.9244 27.6666 52.1667 25.4244 52.1667 22.6666C52.1667 19.9088 49.9244 17.6666 47.1667 17.6666C44.4089 17.6666 42.1667 19.9088 42.1667 22.6666C42.1667 25.4244 44.4089 27.6666 47.1667 27.6666ZM49.6667 30.1666H44.6667C43.2917 30.1666 42.0494 30.7214 41.1432 31.6199C44.2917 33.3464 46.5259 36.4636 47.0104 40.1666H52.1667C53.5494 40.1666 54.6667 39.0494 54.6667 37.6666V35.1666C54.6667 32.4089 52.4244 30.1666 49.6667 30.1666ZM29.6667 30.1666C34.5027 30.1666 38.4167 26.2526 38.4167 21.4166C38.4167 16.5807 34.5027 12.6666 29.6667 12.6666C24.8307 12.6666 20.9167 16.5807 20.9167 21.4166C20.9167 26.2526 24.8307 30.1666 29.6667 30.1666ZM35.6667 32.6666H35.0182C33.3932 33.4479 31.5887 33.9166 29.6667 33.9166C27.7447 33.9166 25.9479 33.4479 24.3151 32.6666H23.6667C18.6979 32.6666 14.6667 36.6979 14.6667 41.6666V43.9166C14.6667 45.9869 16.3464 47.6666 18.4167 47.6666H40.9167C42.9869 47.6666 44.6667 45.9869 44.6667 43.9166V41.6666C44.6667 36.6979 40.6354 32.6666 35.6667 32.6666ZM18.1901 31.6199C17.2839 30.7214 16.0417 30.1666 14.6667 30.1666H9.66666C6.90886 30.1666 4.66666 32.4089 4.66666 35.1666V37.6666C4.66666 39.0494 5.78383 40.1666 7.16666 40.1666H12.3151C12.8073 36.4636 15.0417 33.3464 18.1901 31.6199Z" fill="#5096D7"/>
</svg>
