<svg width="60" height="60" viewBox="0 0 60 60" fill="none" xmlns="http://www.w3.org/2000/svg">
<path d="M53.75 45H47.5V18.8632C47.5 16.7335 45.818 14.9999 43.75 14.9999H35V19.9999H42.5V50H53.75C54.4407 50 55 49.4405 55 48.75V46.25C55 45.5593 54.4407 45 53.75 45ZM29.3937 10.0788L14.3937 13.9648C13.2805 14.2531 12.5 15.289 12.5 16.4781V45H6.25C5.55937 45 5 45.5593 5 46.25V48.75C5 49.4405 5.55937 50 6.25 50H32.5V12.5921C32.5 10.9062 30.972 9.66945 29.3937 10.0788ZM25.625 32.5C24.5898 32.5 23.75 31.3805 23.75 30C23.75 28.6195 24.5898 27.5 25.625 27.5C26.6602 27.5 27.5 28.6195 27.5 30C27.5 31.3805 26.6602 32.5 25.625 32.5Z" fill="#7BD750"/>
</svg>
