<svg width="60" height="60" viewBox="0 0 60 60" fill="none" xmlns="http://www.w3.org/2000/svg">
<path d="M53.75 45H45V13.9688C45 11.7797 43.318 10 41.25 10H18.7492C16.6813 10 14.9992 11.7797 14.9992 13.9688V45H6.25C5.55937 45 5 45.5595 5 46.25V48.75C5 49.4405 5.55937 50 6.25 50H53.75C54.4408 50 55 49.4405 55 48.75V46.25C55 45.5595 54.4408 45 53.75 45ZM37.4992 32.5C36.1187 32.5 34.9992 31.3805 34.9992 30C34.9992 28.6195 36.1187 27.5 37.4992 27.5C38.8797 27.5 39.9992 28.6195 39.9992 30C40 31.3805 38.8805 32.5 37.4992 32.5Z" fill="#D75050"/>
</svg>
