<svg width="42" height="38" viewBox="0 0 42 38" fill="none" xmlns="http://www.w3.org/2000/svg">
<path d="M37.9269 0.770874H4.07275C1.91617 0.770874 0.166504 2.52054 0.166504 4.67712V33.323C0.166504 35.4796 1.91617 37.2292 4.07275 37.2292H37.9269C40.0836 37.2292 41.8332 35.4796 41.8332 33.323V4.67712C41.8332 2.52054 40.0836 0.770874 37.9269 0.770874ZM31.1236 24.4119C31.5142 24.8025 31.5142 25.4371 31.1236 25.8278L27.8275 29.1238C27.4369 29.5144 26.8023 29.5144 26.4117 29.1238L20.9998 23.6632L15.588 29.1238C15.1974 29.5144 14.5627 29.5144 14.172 29.1238L10.8761 25.8278C10.4855 25.4371 10.4855 24.8025 10.8761 24.4119L16.3368 19L10.8761 13.5883C10.4855 13.1976 10.4855 12.5629 10.8761 12.1722L14.172 8.87635C14.5627 8.48573 15.1974 8.48573 15.588 8.87635L20.9998 14.337L26.4117 8.87635C26.8023 8.48573 27.4369 8.48573 27.8275 8.87635L31.1236 12.1722C31.5142 12.5629 31.5142 13.1976 31.1236 13.5883L25.663 19L31.1236 24.4119Z" fill="#5096D7"/>
</svg>
