<svg width="26" height="26" viewBox="0 0 26 26" fill="none" xmlns="http://www.w3.org/2000/svg">
<path d="M24.6668 13C24.6668 19.4448 19.443 24.6667 13.0002 24.6667C6.55729 24.6667 1.3335 19.4448 1.3335 13C1.3335 6.55905 6.55729 1.33337 13.0002 1.33337C19.443 1.33337 24.6668 6.55905 24.6668 13ZM13.0002 15.3522C11.805 15.3522 10.8362 16.321 10.8362 17.5162C10.8362 18.7113 11.805 19.6801 13.0002 19.6801C14.1953 19.6801 15.1641 18.7113 15.1641 17.5162C15.1641 16.321 14.1953 15.3522 13.0002 15.3522ZM10.9457 7.57382L11.2946 13.9717C11.3109 14.271 11.5585 14.5054 11.8583 14.5054H14.142C14.4418 14.5054 14.6894 14.271 14.7057 13.9717L15.0547 7.57382C15.0723 7.25044 14.8148 6.97854 14.491 6.97854H11.5093C11.1854 6.97854 10.928 7.25044 10.9457 7.57382Z" fill="#5096D7" stroke="black" stroke-opacity="0.1"/>
</svg>
