<svg width="31" height="27" viewBox="0 0 31 27" fill="none" xmlns="http://www.w3.org/2000/svg">
<path d="M30.0834 7.11983V23.5261C30.0834 25.0357 28.8587 26.2605 27.349 26.2605H3.65112C2.14151 26.2605 0.916748 25.0357 0.916748 23.5261V7.11983C0.916748 5.61022 2.14151 4.38546 3.65112 4.38546H8.66414L9.36483 2.51127C9.7636 1.446 10.7833 0.739624 11.9226 0.739624H19.0718C20.2112 0.739624 21.2309 1.446 21.6296 2.51127L22.336 4.38546H27.349C28.8587 4.38546 30.0834 5.61022 30.0834 7.11983ZM22.336 15.323C22.336 11.5519 19.2712 8.48702 15.5001 8.48702C11.7289 8.48702 8.66414 11.5519 8.66414 15.323C8.66414 19.0941 11.7289 22.1589 15.5001 22.1589C19.2712 22.1589 22.336 19.0941 22.336 15.323ZM20.5131 15.323C20.5131 18.0858 18.2629 20.336 15.5001 20.336C12.7373 20.336 10.4871 18.0858 10.4871 15.323C10.4871 12.5601 12.7373 10.3099 15.5001 10.3099C18.2629 10.3099 20.5131 12.5601 20.5131 15.323Z" fill="#5096D7"/>
</svg>
