<svg width="24" height="24" viewBox="0 0 24 24" fill="none" xmlns="http://www.w3.org/2000/svg">
<path d="M23.6668 12C23.6668 18.4434 18.4435 23.6667 12.0002 23.6667C5.55682 23.6667 0.333496 18.4434 0.333496 12C0.333496 5.5567 5.55682 0.333374 12.0002 0.333374C18.4435 0.333374 23.6668 5.5567 23.6668 12ZM10.6507 18.1774L19.3066 9.52153C19.6005 9.22761 19.6005 8.75101 19.3066 8.45709L18.2422 7.39265C17.9482 7.09868 17.4716 7.09868 17.1777 7.39265L10.1184 14.4518L6.82266 11.156C6.52873 10.8621 6.05214 10.8621 5.75817 11.156L4.69372 12.2205C4.3998 12.5144 4.3998 12.991 4.69372 13.2849L9.5862 18.1774C9.88017 18.4714 10.3567 18.4714 10.6507 18.1774Z" fill="#7BD750"/>
<path d="M11.0042 18.531L11.0042 18.531L19.6602 9.87509C20.1493 9.3859 20.1493 8.59272 19.6602 8.10354L18.5957 7.03912C18.5957 7.03911 18.5957 7.0391 18.5957 7.03909C18.1065 6.54984 17.3133 6.54989 16.8241 7.03909L10.1184 13.7447L7.17621 10.8025C6.68701 10.3133 5.89385 10.3133 5.40464 10.8025L5.40461 10.8025L4.34017 11.8669C3.85098 12.3561 3.85098 13.1493 4.34017 13.6385L9.23264 18.531C9.72187 19.0202 10.515 19.0202 11.0042 18.531ZM23.1668 12C23.1668 18.1672 18.1674 23.1667 12.0002 23.1667C5.83297 23.1667 0.833496 18.1672 0.833496 12C0.833496 5.83284 5.83297 0.833374 12.0002 0.833374C18.1674 0.833374 23.1668 5.83284 23.1668 12Z" stroke="black" stroke-opacity="0.1"/>
</svg>
