<svg width="20" height="20" viewBox="0 0 20 20" fill="none" xmlns="http://www.w3.org/2000/svg">
<path d="M17.8571 0H2.14286C0.959821 0 0 0.959821 0 2.14286V17.8571C0 19.0402 0.959821 20 2.14286 20H17.8571C19.0402 20 20 19.0402 20 17.8571V2.14286C20 0.959821 19.0402 0 17.8571 0ZM16.4286 11.25C16.4286 11.5446 16.1875 11.7857 15.8929 11.7857H11.7857V15.8929C11.7857 16.1875 11.5446 16.4286 11.25 16.4286H8.75C8.45536 16.4286 8.21429 16.1875 8.21429 15.8929V11.7857H4.10714C3.8125 11.7857 3.57143 11.5446 3.57143 11.25V8.75C3.57143 8.45536 3.8125 8.21429 4.10714 8.21429H8.21429V4.10714C8.21429 3.8125 8.45536 3.57143 8.75 3.57143H11.25C11.5446 3.57143 11.7857 3.8125 11.7857 4.10714V8.21429H15.8929C16.1875 8.21429 16.4286 8.45536 16.4286 8.75V11.25Z" fill="#5096D7"/>
</svg>
